@startuml ホテル
    left to right direction
    class "利用者" as C1 {
        - 名前
        - 住所
        - 電話番号
    }
    class "ホテル" as C2 {
        - 部屋
    }
    class "部屋" as C3 {
        - タイプ
        - 価格
        - キャンペーン価格
    }
    class "予約" as C4 {
        - チェックイン日
        - 滞在期間
        - 値段
    }

    C1 "1" --> "*" C4
    C1 "*" -up-> "1" C2:会員 >
    C2 "1" o-- "*" C3
    C3 "1" -down- "*" C4
@enduml